<svg xmlns="http://www.w3.org/2000/svg" width="12.25" height="12.25" viewBox="0 0 12.25 12.25">
  <path id="Path_577" data-name="Path 577" d="M16.818,13.891l-1.962-1.424c-.586-.425-1.065.118-1.351.442-.4.454-.485.46-.625.361a16.808,16.808,0,0,1-2.106-1.794A16.808,16.808,0,0,1,8.98,9.37c-.1-.14-.093-.224.361-.625.324-.286.868-.765.442-1.351L8.359,5.432A1.076,1.076,0,0,0,7,5.11a4.336,4.336,0,0,0-1.569.97c-.606.606-.564,1.744.119,3.2A15.95,15.95,0,0,0,8.7,13.555a15.95,15.95,0,0,0,4.271,3.151,4.962,4.962,0,0,0,2.023.544,1.608,1.608,0,0,0,1.182-.426,4.337,4.337,0,0,0,.97-1.57A1.076,1.076,0,0,0,16.818,13.891ZM16.5,15.035a3.668,3.668,0,0,1-.807,1.308c-.377.377-1.288.282-2.435-.254a15.265,15.265,0,0,1-4.078-3.016A15.266,15.266,0,0,1,6.161,9c-.536-1.147-.631-2.058-.254-2.435a3.668,3.668,0,0,1,1.308-.807,1.093,1.093,0,0,1,.337-.072.278.278,0,0,1,.257.15L9.232,7.794c.044.06.006.135-.341.441s-.955.841-.466,1.529a17.5,17.5,0,0,0,1.867,2.194,17.5,17.5,0,0,0,2.194,1.867c.688.488,1.215-.109,1.529-.466s.38-.385.441-.341l1.962,1.424C16.538,14.529,16.643,14.6,16.5,15.035Zm.072-4.6a4.761,4.761,0,0,0-4.755-4.756.34.34,0,0,1,0-.681,5.443,5.443,0,0,1,5.436,5.437.34.34,0,1,1-.681,0Zm-1.446,0a3.313,3.313,0,0,0-3.309-3.31.34.34,0,1,1,0-.681,4,4,0,0,1,3.99,3.991.34.34,0,1,1-.681,0Zm-.766,0a.34.34,0,0,1-.681,0,1.865,1.865,0,0,0-1.863-1.864.34.34,0,1,1,0-.681,2.547,2.547,0,0,1,2.543,2.545Z" transform="translate(-5 -5)" fill="#202020"/>
</svg>
