<svg id="Group_1912" data-name="Group 1912" xmlns="http://www.w3.org/2000/svg" width="11.367" height="9.473" viewBox="0 0 11.367 9.473">
  <path id="Path_994" data-name="Path 994" d="M7.1,1033.36a.315.315,0,0,0-.253.126L6,1034.623H3.947a.953.953,0,0,0-.947.947v6.315a.953.953,0,0,0,.947.947H13.42a.953.953,0,0,0,.947-.947v-6.315a.953.953,0,0,0-.947-.947H11.368l-.852-1.136a.316.316,0,0,0-.253-.127Zm.158.631H10.1l.852,1.136a.316.316,0,0,0,.253.127h2.21a.279.279,0,0,1,.316.316v6.315a.279.279,0,0,1-.316.316H3.947a.279.279,0,0,1-.316-.316v-6.315a.279.279,0,0,1,.316-.316h2.21a.315.315,0,0,0,.253-.126Z" transform="translate(-3 -1033.36)" fill="#202020"/>
  <path id="Path_995" data-name="Path 995" d="M10.526,1037.36a2.526,2.526,0,1,0,2.526,2.526A2.531,2.531,0,0,0,10.526,1037.36Zm0,.631a1.895,1.895,0,1,1-1.895,1.895A1.89,1.89,0,0,1,10.526,1037.991Z" transform="translate(-4.842 -1034.834)" fill="#202020"/>
</svg>
