<svg id="instagram_1_" data-name="instagram (1)" xmlns="http://www.w3.org/2000/svg" width="25.897" height="25.897" viewBox="0 0 25.897 25.897">
  <g id="Group_2513" data-name="Group 2513" transform="translate(0 0)">
    <g id="Group_2512" data-name="Group 2512" transform="translate(0)">
      <path id="Path_5719" data-name="Path 5719" d="M18.374,0H7.523A7.531,7.531,0,0,0,0,7.523V18.374A7.531,7.531,0,0,0,7.523,25.9H18.374A7.531,7.531,0,0,0,25.9,18.374V7.523A7.531,7.531,0,0,0,18.374,0Zm5.5,18.374a5.506,5.506,0,0,1-5.5,5.5H7.523a5.506,5.506,0,0,1-5.5-5.5V7.523a5.506,5.506,0,0,1,5.5-5.5H18.374a5.506,5.506,0,0,1,5.5,5.5Z" transform="translate(0 0)" fill="#202020"/>
    </g>
  </g>
  <g id="Group_2515" data-name="Group 2515" transform="translate(5.968 5.968)">
    <g id="Group_2514" data-name="Group 2514">
      <path id="Path_5720" data-name="Path 5720" d="M124.98,118a6.98,6.98,0,1,0,6.98,6.98A6.988,6.988,0,0,0,124.98,118Zm0,11.937a4.957,4.957,0,1,1,4.957-4.957A4.962,4.962,0,0,1,124.98,129.937Z" transform="translate(-118 -118)" fill="#202020"/>
    </g>
  </g>
  <g id="Group_2517" data-name="Group 2517" transform="translate(18.761 4.211)">
    <g id="Group_2516" data-name="Group 2516" transform="translate(0 0)">
      <ellipse id="Ellipse_18" data-name="Ellipse 18" cx="1.404" cy="1.404" rx="1.404" ry="1.404" transform="translate(0 0)" fill="#202020"/>
    </g>
  </g>
</svg>
