<svg id="Group_341" data-name="Group 341" xmlns="http://www.w3.org/2000/svg" width="8.493" height="11.69" viewBox="0 0 8.493 11.69">
  <path id="Path_545" data-name="Path 545" d="M18.647,3.123A2.123,2.123,0,1,0,20.77,5.247,2.128,2.128,0,0,0,18.647,3.123Zm0,3.722a1.6,1.6,0,1,1,1.6-1.6A1.6,1.6,0,0,1,18.647,6.845Zm0-5.845A4.248,4.248,0,0,0,14.4,5.247c0,3.459,4.247,7.443,4.247,7.443s4.247-3.984,4.247-7.443A4.248,4.248,0,0,0,18.647,1Zm0,10.891s-3.722-3.459-3.722-6.644a3.722,3.722,0,1,1,7.443,0C22.368,8.443,18.647,11.891,18.647,11.891Z" transform="translate(-14.4 -1)" fill="#202020"/>
</svg>
