<svg id="Group_1839" data-name="Group 1839" xmlns="http://www.w3.org/2000/svg" width="15.75" height="15.75" viewBox="0 0 15.75 15.75">
  <path id="Path_926" data-name="Path 926" d="M18.478,6.8H3.271a.272.272,0,0,1-.258-.357l.964-2.887A.815.815,0,0,1,4.749,3H17a.815.815,0,0,1,.773.557l.962,2.887a.272.272,0,0,1-.258.357ZM3.648,6.259H18.1l-.843-2.53A.272.272,0,0,0,17,3.543H4.749a.272.272,0,0,0-.257.186Z" transform="translate(-3 -3)" fill="#fff"/>
  <path id="Path_927" data-name="Path 927" d="M17.392,27.491H4.358A1.359,1.359,0,0,1,3,26.134V15.272A.272.272,0,0,1,3.272,15H18.478a.272.272,0,0,1,.272.272V26.134A1.359,1.359,0,0,1,17.392,27.491ZM3.543,15.543v10.59a.815.815,0,0,0,.815.815H17.392a.815.815,0,0,0,.815-.815V15.543Z" transform="translate(-3 -11.741)" fill="#fff"/>
  <path id="Path_928" data-name="Path 928" d="M26.747,18.8a.272.272,0,0,1-.136-.036l-.3-.172-.3.172a.272.272,0,0,1-.272,0l-.3-.172-.3.172a.272.272,0,0,1-.272,0l-.3-.172-.3.172a.272.272,0,0,1-.272,0l-.3-.172-.3.172A.272.272,0,0,1,23,18.53V15.388c0-.228.217-.388.527-.388h3.834c.31,0,.527.16.527.388V18.53a.272.272,0,0,1-.407.235l-.3-.172-.3.172A.272.272,0,0,1,26.747,18.8Zm-1.3-.794a.272.272,0,0,1,.136.036l.3.172.3-.172a.272.272,0,0,1,.272,0l.3.172.3-.172a.272.272,0,0,1,.272,0l.027.016V15.543h-3.8V18.06l.027-.016a.272.272,0,0,1,.272,0l.3.172.3-.172a.272.272,0,0,1,.272,0l.3.172.3-.172A.272.272,0,0,1,25.444,18.008Z" transform="translate(-17.569 -11.741)" fill="#fff"/>
  <path id="Path_929" data-name="Path 929" d="M27.617,6.8H23.272A.272.272,0,0,1,23,6.486l.543-3.259A.272.272,0,0,1,23.815,3h3.259a.272.272,0,0,1,.268.227l.543,3.259a.272.272,0,0,1-.268.316Zm-4.024-.543h3.7l-.452-2.715h-2.8Z" transform="translate(-17.569 -3)" fill="#fff"/>
  <path id="Path_930" data-name="Path 930" d="M8.9,19.543H7.272a.272.272,0,1,1,0-.543H8.9a.272.272,0,1,1,0,.543Z" transform="translate(-5.914 -14.655)" fill="#fff"/>
  <path id="Path_931" data-name="Path 931" d="M10.53,55.543H7.272a.272.272,0,1,1,0-.543H10.53a.272.272,0,1,1,0,.543Z" transform="translate(-5.914 -40.879)" fill="#fff"/>
  <path id="Path_932" data-name="Path 932" d="M10.53,50.543H7.272a.272.272,0,1,1,0-.543H10.53a.272.272,0,1,1,0,.543Z" transform="translate(-5.914 -37.237)" fill="#fff"/>
  <path id="Path_933" data-name="Path 933" d="M8.9,45.543H7.272a.272.272,0,0,1,0-.543H8.9a.272.272,0,0,1,0,.543Z" transform="translate(-5.914 -33.595)" fill="#fff"/>
  <path id="Path_934" data-name="Path 934" d="M10.53,40.543H7.272a.272.272,0,0,1,0-.543H10.53a.272.272,0,0,1,0,.543Z" transform="translate(-5.914 -29.953)" fill="#fff"/>
  <path id="Path_935" data-name="Path 935" d="M17.815,19.543h-.543a.272.272,0,1,1,0-.543h.543a.272.272,0,1,1,0,.543Z" transform="translate(-13.198 -14.655)" fill="#fff"/>
  <path id="Path_936" data-name="Path 936" d="M44.073,39.974h-3.8A.272.272,0,0,1,40,39.7V34.272A.272.272,0,0,1,40.272,34h3.8a.272.272,0,0,1,.272.272V39.7A.272.272,0,0,1,44.073,39.974Zm-3.53-.543H43.8V34.543H40.543Z" transform="translate(-29.953 -25.582)" fill="#fff"/>
  <path id="Path_937" data-name="Path 937" d="M45.9,39.646a.272.272,0,0,1-.217-.109l-.6-.8-.6.8a.272.272,0,1,1-.434-.326l.815-1.086a.281.281,0,0,1,.434,0l.815,1.086a.272.272,0,0,1-.217.434Z" transform="translate(-32.866 -28.512)" fill="#fff"/>
  <path id="Path_938" data-name="Path 938" d="M47.272,41.8A.272.272,0,0,1,47,41.53V38.272a.272.272,0,1,1,.543,0V41.53A.272.272,0,0,1,47.272,41.8Z" transform="translate(-35.052 -28.496)" fill="#fff"/>
</svg>
