<svg id="avatar" xmlns="http://www.w3.org/2000/svg" width="18.85" height="22.161" viewBox="0 0 18.85 22.161">
  <g id="Group_799" data-name="Group 799">
    <path id="Path_321" data-name="Path 321" d="M141.791,11.941h.147a4.235,4.235,0,0,0,3.235-1.4c1.767-1.992,1.473-5.406,1.441-5.732A4.682,4.682,0,0,0,144.388.647,5.1,5.1,0,0,0,141.919,0h-.078a5.11,5.11,0,0,0-2.469.629,4.685,4.685,0,0,0-2.253,4.181c-.032.326-.326,3.74,1.441,5.732A4.218,4.218,0,0,0,141.791,11.941Zm-3.446-7.017c0-.014,0-.028,0-.037.151-3.29,2.487-3.644,3.488-3.644h.055c1.239.028,3.345.532,3.488,3.644a.089.089,0,0,0,0,.037c0,.032.326,3.153-1.134,4.8a3.008,3.008,0,0,1-2.363.982h-.046a3,3,0,0,1-2.359-.982C138.028,8.086,138.34,4.952,138.344,4.924Z" transform="translate(-132.446)" fill="#202020"/>
    <path id="Path_322" data-name="Path 322" d="M54.922,264.951v-.014c0-.037,0-.073,0-.115-.028-.909-.087-3.033-2.079-3.713l-.046-.014a13.243,13.243,0,0,1-3.809-1.735.619.619,0,1,0-.711,1.014,14.294,14.294,0,0,0,4.19,1.914c1.069.381,1.189,1.524,1.221,2.57a.92.92,0,0,0,0,.115,8.331,8.331,0,0,1-.1,1.418,16.889,16.889,0,0,1-8.091,1.882,16.987,16.987,0,0,1-8.1-1.886,7.887,7.887,0,0,1-.1-1.418c0-.037,0-.073,0-.115.032-1.046.151-2.189,1.221-2.57a14.428,14.428,0,0,0,4.19-1.914.619.619,0,1,0-.711-1.014,13.1,13.1,0,0,1-3.809,1.735l-.046.014c-1.992.684-2.051,2.809-2.079,3.713a.923.923,0,0,1,0,.115v.014a7.037,7.037,0,0,0,.234,2.079.589.589,0,0,0,.239.289,17.357,17.357,0,0,0,8.958,2.194,17.411,17.411,0,0,0,8.958-2.194.614.614,0,0,0,.239-.289A7.384,7.384,0,0,0,54.922,264.951Z" transform="translate(-36.073 -247.347)" fill="#202020"/>
  </g>
</svg>
