<svg xmlns="http://www.w3.org/2000/svg" width="11.148" height="19.84" viewBox="0 0 11.148 19.84">
  <g id="Group_2590" data-name="Group 2590" transform="translate(-5.386 -0.304)">
    <path id="Path_1411" data-name="Path 1411" d="M15.356.3H6.565A1.18,1.18,0,0,0,5.386,1.483V18.965a1.181,1.181,0,0,0,1.179,1.179h8.79a1.181,1.181,0,0,0,1.179-1.179V1.483A1.18,1.18,0,0,0,15.356.3ZM6.565.978h8.79a.506.506,0,0,1,.505.505V2.817H6.06V1.483A.506.506,0,0,1,6.565.978Zm9.3,2.512V16.356H6.06V3.49Zm-.5,15.98H6.565a.506.506,0,0,1-.505-.505V17.03h9.8v1.934A.5.5,0,0,1,15.356,19.47Z" fill="#202020"/>
    <circle id="Ellipse_132" data-name="Ellipse 132" cx="1.034" cy="1.034" r="1.034" transform="translate(9.918 17.247)" fill="#202020"/>
    <circle id="Ellipse_133" data-name="Ellipse 133" cx="0.333" cy="0.333" r="0.333" transform="translate(10.627 1.592)" fill="#202020"/>
    <circle id="Ellipse_134" data-name="Ellipse 134" cx="0.333" cy="0.333" r="0.333" transform="translate(9.785 1.592)" fill="#202020"/>
    <circle id="Ellipse_135" data-name="Ellipse 135" cx="0.333" cy="0.333" r="0.333" transform="translate(11.47 1.592)" fill="#202020"/>
  </g>
</svg>
