<svg id="Group_2676" data-name="Group 2676" xmlns="http://www.w3.org/2000/svg" width="18.048" height="17.51" viewBox="0 0 18.048 17.51">
  <g id="Group_2686" data-name="Group 2686">
    <g id="Group_2679" data-name="Group 2679" transform="translate(0 3.743)">
      <g id="Group_2676-2" data-name="Group 2676" transform="translate(8.208 0.002)">
        <path id="Path_1446" data-name="Path 1446" d="M706.048,364.06a.251.251,0,0,1-.134-.039.248.248,0,0,1-.113-.209v-9.526a.248.248,0,0,1,.145-.225l8.208-3.744a.247.247,0,0,1,.35.225v4.513a.248.248,0,1,1-.5,0v-4.129l-7.712,3.519v8.98l2.231-1.018a.248.248,0,1,1,.205.451l-2.581,1.177A.245.245,0,0,1,706.048,364.06Z" transform="translate(-705.8 -350.295)" fill="#202020"/>
      </g>
      <g id="Group_2677" data-name="Group 2677" transform="translate(1.058 7.039)">
        <path id="Path_1447" data-name="Path 1447" d="M101.842,949.95a.241.241,0,0,1-.1-.022l-1.894-.863a.248.248,0,0,1-.145-.225v-1.727a.25.25,0,0,1,.113-.209.246.246,0,0,1,.237-.017l1.894.865a.248.248,0,0,1,.145.225V949.7a.25.25,0,0,1-.113.209A.264.264,0,0,1,101.842,949.95Zm-1.647-1.27,1.4.638v-1.182l-1.4-.638Z" transform="translate(-99.7 -946.863)" fill="#202020"/>
      </g>
      <g id="Group_2678" data-name="Group 2678">
        <path id="Path_1448" data-name="Path 1448" d="M18.456,363.93a.241.241,0,0,1-.1-.022l-8.208-3.744a.248.248,0,0,1-.145-.225v-9.527a.25.25,0,0,1,.113-.209.246.246,0,0,1,.237-.017l8.208,3.744a.248.248,0,0,1,.145.225v9.526a.25.25,0,0,1-.113.209A.245.245,0,0,1,18.456,363.93Zm-7.96-4.151,7.712,3.519v-8.982L10.5,350.8Z" transform="translate(-10 -350.164)" fill="#202020"/>
      </g>
    </g>
    <g id="Group_2680" data-name="Group 2680" transform="translate(2.993 7.303)">
      <path id="Path_1449" data-name="Path 1449" d="M265.766,653.226a.245.245,0,0,1-.1-.022l-1.818-.829a.248.248,0,0,1,.205-.451l1.818.829a.248.248,0,0,1-.1.473Z" transform="translate(-263.701 -651.901)" fill="#202020"/>
    </g>
    <g id="Group_2681" data-name="Group 2681" transform="translate(0)">
      <path id="Path_1450" data-name="Path 1450" d="M26.663,37.064a.244.244,0,0,1-.1-.022l-8.1-3.7-8.105,3.7a.248.248,0,1,1-.205-.451l8.208-3.744a.249.249,0,0,1,.205,0l8.208,3.744a.248.248,0,0,1-.1.473Z" transform="translate(-10.001 -32.825)" fill="#202020"/>
    </g>
    <g id="Group_2682" data-name="Group 2682" transform="translate(2.993 1.366)">
      <path id="Path_1451" data-name="Path 1451" d="M263.949,152.84a.248.248,0,0,1-.1-.473l8.208-3.744a.248.248,0,0,1,.205.451l-8.208,3.744A.244.244,0,0,1,263.949,152.84Z" transform="translate(-263.701 -148.601)" fill="#202020"/>
    </g>
    <g id="Group_2683" data-name="Group 2683" transform="translate(4.811 2.194)">
      <path id="Path_1452" data-name="Path 1452" d="M418.048,223.041a.248.248,0,0,1-.1-.477l8.2-3.742a.248.248,0,1,1,.205.451l-8.207,3.745A.255.255,0,0,1,418.048,223.041Z" transform="translate(-417.8 -218.801)" fill="#202020"/>
    </g>
    <g id="Group_2684" data-name="Group 2684" transform="translate(4.811 5.939)">
      <path id="Path_1453" data-name="Path 1453" d="M418.048,538.988a.248.248,0,0,1-.248-.248v-2.193a.248.248,0,0,1,.5,0v2.193A.248.248,0,0,1,418.048,538.988Z" transform="translate(-417.8 -536.3)" fill="#202020"/>
    </g>
    <g id="Group_2685" data-name="Group 2685" transform="translate(2.993 5.11)">
      <path id="Path_1454" data-name="Path 1454" d="M263.948,468.688a.248.248,0,0,1-.248-.248v-2.193a.248.248,0,0,1,.5,0v2.193A.248.248,0,0,1,263.948,468.688Z" transform="translate(-263.7 -466)" fill="#202020"/>
    </g>
  </g>
  <g id="Group_2700" data-name="Group 2700" transform="translate(10.789 7.088)">
    <g id="Group_2699" data-name="Group 2699">
      <g id="Group_2687" data-name="Group 2687" transform="translate(0 1.169)">
        <path id="Path_1455" data-name="Path 1455" d="M931.212,741.329h-5.964a.648.648,0,0,1-.648-.648v-7.233a.648.648,0,0,1,.648-.648h1.38a.248.248,0,0,1,0,.5h-1.38a.153.153,0,0,0-.152.152v7.233a.152.152,0,0,0,.152.152h5.964a.153.153,0,0,0,.152-.152v-7.233a.153.153,0,0,0-.152-.152h-1.38a.248.248,0,1,1,0-.5h1.38a.648.648,0,0,1,.648.648v7.233A.648.648,0,0,1,931.212,741.329Z" transform="translate(-924.6 -732.8)" fill="#202020"/>
      </g>
      <g id="Group_2689" data-name="Group 2689" transform="translate(2.611)">
        <g id="Group_2688" data-name="Group 2688">
          <path id="Path_1456" data-name="Path 1456" d="M1147.691,634.89a.248.248,0,0,1-.248-.248v-.428a.019.019,0,0,0-.019-.019h-1.01a.019.019,0,0,0-.019.019v.428a.248.248,0,0,1-.5,0v-.428a.516.516,0,0,1,.514-.514h1.01a.516.516,0,0,1,.514.514v.428A.248.248,0,0,1,1147.691,634.89Z" transform="translate(-1145.9 -633.7)" fill="#202020"/>
        </g>
      </g>
      <g id="Group_2690" data-name="Group 2690" transform="translate(1.78 0.694)">
        <path id="Path_1457" data-name="Path 1457" d="M1078.48,694.115h-2.26a.721.721,0,0,1-.719-.72v-.176a.721.721,0,0,1,.719-.72h2.26a.721.721,0,0,1,.719.72v.176A.721.721,0,0,1,1078.48,694.115Zm-2.26-1.118a.224.224,0,0,0-.224.224v.176a.224.224,0,0,0,.224.224h2.26a.224.224,0,0,0,.224-.224v-.176a.224.224,0,0,0-.224-.224Z" transform="translate(-1075.5 -692.5)" fill="#202020"/>
      </g>
      <g id="Group_2698" data-name="Group 2698" transform="translate(1.499 3.785)">
        <g id="Group_2697" data-name="Group 2697">
          <g id="Group_2691" data-name="Group 2691" transform="translate(1.136 0.05)">
            <path id="Path_1458" data-name="Path 1458" d="M1151.124,959.3h-2.876a.248.248,0,0,1,0-.5h2.876a.248.248,0,0,1,0,.5Z" transform="translate(-1148 -958.8)" fill="#202020"/>
          </g>
          <g id="Group_2692" data-name="Group 2692" transform="translate(1.136 1.4)">
            <path id="Path_1459" data-name="Path 1459" d="M1151.124,1073.8h-2.876a.248.248,0,1,1,0-.5h2.876a.248.248,0,1,1,0,.5Z" transform="translate(-1148 -1073.3)" fill="#202020"/>
          </g>
          <g id="Group_2693" data-name="Group 2693" transform="translate(1.136 2.751)">
            <path id="Path_1460" data-name="Path 1460" d="M1151.124,1188.3h-2.876a.248.248,0,0,1,0-.5h2.876a.248.248,0,0,1,0,.5Z" transform="translate(-1148 -1187.8)" fill="#202020"/>
          </g>
          <g id="Group_2694" data-name="Group 2694">
            <circle id="Ellipse_136" data-name="Ellipse 136" cx="0.297" cy="0.297" r="0.297" fill="#202020"/>
          </g>
          <g id="Group_2695" data-name="Group 2695" transform="translate(0 1.351)">
            <circle id="Ellipse_137" data-name="Ellipse 137" cx="0.297" cy="0.297" r="0.297" fill="#202020"/>
          </g>
          <g id="Group_2696" data-name="Group 2696" transform="translate(0 2.701)">
            <circle id="Ellipse_138" data-name="Ellipse 138" cx="0.297" cy="0.297" r="0.297" fill="#202020"/>
          </g>
        </g>
      </g>
    </g>
  </g>
</svg>
